<svg xmlns="http://www.w3.org/2000/svg"><style>:root svg:not(:target){display:none}</style><svg viewBox="0 0 67 28" fill="none" id="cat-pro"><g clip-path="url(#cat-pro_0)"><path d="M60.5591 2.87843C61.1364 1.95997 61.9036 1.17573 62.8091 0.578427C63.3091 0.228427 63.6091 0.228427 63.9091 0.878427C64.3091 1.82843 64.6591 2.82843 64.3591 3.87843C64.3045 4.05651 64.2942 4.24523 64.3291 4.4282C64.3639 4.61117 64.4429 4.78288 64.5591 4.92843C64.8591 5.32843 65.1091 5.72843 65.3591 6.07843C65.6994 6.51031 65.9201 7.02408 65.9991 7.5682C66.078 8.11231 66.0125 8.66763 65.8091 9.17843C65.6256 9.67433 65.5908 10.213 65.7091 10.7284C65.809 11.2234 65.809 11.7334 65.7091 12.2284C65.6687 12.5991 65.5187 12.9494 65.2782 13.2344C65.0377 13.5194 64.7177 13.7262 64.3591 13.8284C63.7196 13.9501 63.1488 14.3069 62.7591 14.8284C62.7119 14.9052 62.6457 14.9686 62.5669 15.0124C62.488 15.0562 62.3993 15.0789 62.3091 15.0784C61.7091 15.1784 60.2091 13.8284 60.2091 13.2284V12.9284C60.2591 11.1284 60.1591 10.9784 58.5091 10.2284C58.1638 10.1066 57.8544 9.90037 57.6091 9.62843C57.3091 9.22843 56.9091 9.27843 56.4591 9.42843C56.0091 9.57843 55.7591 9.87843 55.8091 10.3784C55.9599 11.5889 56.0101 12.8097 55.9591 14.0284C55.9624 14.1675 55.9966 14.3041 56.0591 14.4284C57.6091 16.6784 58.2091 19.3284 58.9591 21.8784C59.5591 23.8284 60.6591 24.8784 62.6591 25.0284C62.9792 25.054 63.2968 25.1041 63.6091 25.1784C64.02 25.2444 64.4017 25.4322 64.7048 25.7174C65.0078 26.0027 65.2183 26.3723 65.3091 26.7784C65.6591 27.8284 65.4591 28.0784 64.4091 28.0784H61.1591C60.7384 28.0997 60.3259 27.9562 60.0091 27.6784C59.5031 27.2514 58.9282 26.9132 58.3091 26.6784C57.6247 26.4258 57.0323 25.9728 56.6091 25.3784C56.0234 24.5602 55.3531 23.806 54.6091 23.1284C53.2091 21.6784 51.7091 20.2784 50.4091 18.7784C49.4195 17.7563 48.8486 16.4006 48.8091 14.9784C48.8091 14.5284 48.7091 14.3284 48.2091 14.5284C48.0594 14.6234 47.8864 14.6753 47.7091 14.6784C46.3091 14.6784 45.6091 15.5284 45.1091 16.7784C44.6591 17.8284 44.0591 18.8284 43.5091 19.8784C43.1972 20.5357 43.0269 21.2511 43.0091 21.9784C43.0091 23.1784 43.3091 23.5784 44.4091 23.9784C45.1091 24.2284 45.7591 24.4784 46.1091 25.1784C46.5091 25.9784 46.4091 26.1784 45.5591 26.2284H42.1591C41.9631 26.2478 41.7659 26.2052 41.5955 26.1065C41.425 26.0078 41.2899 25.8581 41.2091 25.6784L40.3091 24.1784C40.0438 23.7871 39.874 23.3389 39.8132 22.87C39.7524 22.4011 39.8024 21.9245 39.9591 21.4784C40.1755 20.6102 40.1926 19.7042 40.0091 18.8284C39.8831 18.2185 39.8939 17.5882 40.0409 16.9829C40.1879 16.3777 40.4674 15.8126 40.8591 15.3284C41.1591 14.9784 41.1591 14.8284 40.6591 14.7284C38.6146 14.2941 36.6325 13.6054 34.7591 12.6784C34.7459 12.6784 34.7331 12.6732 34.7238 12.6638C34.7144 12.6544 34.7091 12.6417 34.7091 12.6284C33.1091 12.0284 32.8091 12.1284 32.3591 13.7784C31.9591 15.1784 31.5591 16.5784 31.2591 18.0284C30.9091 19.6284 31.3091 21.1284 31.8091 22.6284C32.0091 23.2284 32.6091 23.1784 33.0591 23.3284C34.0591 23.6284 34.9091 24.0284 35.3091 25.0784C35.6591 25.8784 35.6091 25.9784 34.7591 25.9784C33.9091 25.9784 33.0591 25.9284 32.1591 25.9784C31.3997 25.9922 30.6584 25.7451 30.0591 25.2784C27.6591 23.6784 26.9591 21.2284 26.7591 18.5784C26.6591 16.9284 25.7591 15.6284 24.7091 14.3784C24.5091 14.1284 24.3091 14.0284 24.0091 14.2284C22.9359 14.8202 21.8153 15.3219 20.6591 15.7284C18.2462 16.5804 16.1289 18.1077 14.5591 20.1284C13.9729 20.8659 13.5933 21.746 13.4591 22.6784C13.3091 23.5784 13.5591 23.9784 14.4591 24.2284C15.3591 24.4784 15.8091 24.9784 15.9091 25.9284C15.9591 26.3284 15.8091 26.5284 15.4091 26.5284H11.3591C11.2266 26.519 11.0982 26.4778 10.9851 26.4081C10.8719 26.3385 10.7772 26.2425 10.7091 26.1284C10.081 25.3508 9.74494 24.3779 9.75912 23.3784C9.73288 21.6509 9.88366 19.9252 10.2091 18.2284C10.2759 17.7203 10.4656 17.2361 10.7618 16.8178C11.0581 16.3996 11.4519 16.06 11.9091 15.8284C14.8591 14.4284 16.4091 11.7784 17.8091 9.02843C18.1091 8.47843 17.8591 8.37843 17.3591 8.42843C15.9598 8.62269 14.634 9.17368 13.5091 10.0284C12.0362 11.1029 10.6487 12.2897 9.35912 13.5784C7.98394 14.9753 6.16046 15.8427 4.20911 16.0284C0.559114 16.2284 -1.14089 14.1784 -0.990885 10.8784C-0.957354 9.75323 -0.533061 8.67482 0.209115 7.82843C0.467126 7.49393 0.818981 7.24392 1.21975 7.11033C1.62052 6.97674 2.05201 6.96563 2.45912 7.07843C3.20912 7.27843 3.40911 7.67843 3.10911 8.42843C2.95911 8.72843 2.75911 8.97843 2.60911 9.27843C2.39341 9.58491 2.22488 9.92198 2.10911 10.2784C1.55911 11.7784 2.30911 12.8284 3.85911 12.9784C5.50911 13.1284 6.85912 12.4284 8.10912 11.4284C9.61508 10.2226 10.9595 8.82775 12.1091 7.27843C12.9687 6.14713 14.0512 5.20407 15.2895 4.50749C16.5279 3.81091 17.8959 3.37559 19.3091 3.22843C20.4591 3.07843 21.4591 2.57843 22.5591 2.27843C24.6164 1.65123 26.7586 1.34761 28.9091 1.37843C29.9052 1.41991 30.8974 1.23172 31.8091 0.828427C34.2591 -0.171573 36.8091 -0.171573 39.3591 0.328427C41.3591 0.728427 43.3591 1.22843 45.3091 1.72843C46.4696 1.94467 47.6629 1.91057 48.8091 1.62843C51.0034 1.07219 53.248 0.737189 55.5091 0.628427C56.9904 0.55636 58.4667 0.848196 59.8091 1.47843C60.8091 1.92843 60.8091 1.92843 60.5591 2.87843Z" fill="black"></path></g><defs><clipPath id="cat-pro_0"><rect width="67" height="28" fill="white"></rect></clipPath></defs></svg><svg viewBox="0 0 36 50" fill="none" id="cat-slim"><g clip-path="url(#cat-slim_0)"><path d="M28.2034 0H28.008C27.6778 0.187081 27.415 0.473924 27.2571 0.819588C26.968 1.37738 26.7453 1.96735 26.5937 2.57732C26.5612 2.76073 26.4688 2.92811 26.331 3.05315C26.1932 3.17818 26.0179 3.25377 25.8326 3.26804C25.2658 3.36597 24.7288 3.59243 24.2626 3.93012C23.7965 4.26781 23.4135 4.7078 23.1429 5.21649C22.7708 5.87697 22.4526 6.5665 22.1914 7.27835C21.4611 9.17526 20.9006 11.134 20.2114 13.0464C19.8874 13.9175 19.872 13.9175 18.8949 13.9175C17.7274 13.9175 17.8097 13.7371 17.7943 15.0258C17.7943 15.433 17.9177 15.6392 18.3497 15.6186C18.4834 15.6186 18.684 15.5515 18.7354 15.7268C18.7869 15.9021 18.612 15.9794 18.5091 16.0825C17.8994 16.7029 17.1276 17.1388 16.2823 17.3402C15.3051 17.6031 14.3074 17.8093 13.356 18.1289C10.9131 18.9485 8.65543 20.0928 6.89657 22.0309C5.86814 23.2347 5.04455 24.6001 4.45886 26.0722C2.57143 30.5258 1.656 35.2165 0.946286 39.9536C0.612 42.1753 0.375429 44.4072 0.195429 46.6546C0.102857 47.7577 0 48.8763 0 50H17.1411C17.1696 49.7731 17.1283 49.5429 17.0229 49.3402C16.858 48.9289 16.5901 48.5672 16.2451 48.29C15.9 48.0128 15.4895 47.8295 15.0531 47.7577C14.6931 47.6753 14.652 47.567 14.8731 47.2835C15.2338 46.801 15.5103 46.2607 15.6909 45.6856C16.5291 43.2062 16.8531 40.6186 17.2594 38.0567C17.4889 36.0999 18.0894 34.2051 19.0286 32.4742C19.7611 31.2002 20.7382 30.0842 21.9034 29.1907C22.3303 28.866 22.3457 28.866 22.4177 29.4175C22.4691 29.7835 22.4794 30.1598 22.5051 30.5309C22.6595 32.9662 22.6285 35.4097 22.4126 37.8402C22.2184 39.7242 22.1926 41.6217 22.3354 43.5103C22.5399 45.7029 22.9304 47.8739 23.5029 50H30.3429C30.2536 49.442 29.9973 48.9243 29.6078 48.5156C29.2184 48.1069 28.7143 47.8264 28.1623 47.7113C27.5177 47.6087 26.8587 47.6438 26.2286 47.8144C25.92 47.8866 25.7914 47.8144 25.7657 47.4794C25.5529 44.7505 25.7261 42.0051 26.28 39.3247C26.966 36.2304 27.4912 33.1025 27.8537 29.9536C27.9887 28.6819 28.3881 27.4528 29.0263 26.3454C29.6383 25.2526 30.1731 24.1186 30.7749 23.0206C31.0138 22.6214 31.1575 22.1723 31.195 21.7083C31.2325 21.2443 31.1626 20.7779 30.9909 20.3454C30.852 19.9794 30.7183 19.6082 30.5486 19.2577C30.0343 18.2526 29.52 17.2577 29.0469 16.2423C28.7949 15.7268 28.8514 15.6649 29.412 15.6495C30.2503 15.6495 30.2503 15.6495 30.2657 14.8041C30.2657 14.6907 30.2657 14.5773 30.2657 14.4639C30.2657 14.1082 30.132 13.9124 29.7514 13.9485C29.4943 13.9485 29.2371 13.9485 28.9697 13.9485C28.6149 13.9485 28.512 13.799 28.5994 13.433C28.7729 12.838 29.1142 12.306 29.5823 11.9009C30.0503 11.4958 30.6252 11.2349 31.2377 11.1495C32.3772 11.0505 33.5251 11.1252 34.6423 11.3711C34.7712 11.4118 34.9109 11.4001 35.0312 11.3383C35.1515 11.2766 35.2427 11.1699 35.2851 11.0412C35.4909 10.5258 35.7171 10.0103 35.9486 9.49484C36.001 9.40339 36.0242 9.29801 36.015 9.19293C36.0058 9.08785 35.9647 8.98812 35.8971 8.90722C34.2514 6.81443 32.4669 4.86082 30.0343 3.60825C29.9168 3.55754 29.8138 3.47814 29.7347 3.3773C29.6557 3.27646 29.6031 3.15738 29.5817 3.03093C29.444 2.29408 29.225 1.57487 28.9286 0.886598C28.7895 0.519904 28.5349 0.20865 28.2034 0V0Z" fill="black"></path></g><defs><clipPath id="cat-slim_0"><rect width="36" height="50" fill="white"></rect></clipPath></defs></svg><svg viewBox="0 0 32 12" fill="none" id="icon_arrow"><line y1="6" x2="18" y2="6" stroke="black" stroke-width="2"></line><path d="M24 6L17.25 11.1962L17.25 0.803848L24 6Z" fill="black"></path></svg><svg viewBox="0 0 33 38" fill="none" id="logo-mobile"><g clip-path="url(#logo-mobile_0)"><path d="M6.0117 20.9349V18.6514C12.6311 17.7242 19.3065 17.2752 25.988 17.3076C25.988 17.9139 25.988 18.5302 25.9286 19.1465C27.8277 18.2867 29.8236 17.6691 31.8709 17.3076C30.5661 13.8643 28.1884 10.9536 25.1037 9.02347C22.0189 7.09332 18.398 6.25055 14.7979 6.62482C11.1978 6.9991 7.81798 8.56967 5.17831 11.095C2.53863 13.6202 0.785353 16.9603 0.188175 20.6014L6.0117 20.9349Z" fill="#FDC305"></path><path d="M26.9784 24.4813C25.8295 25.7745 25.6017 25.6937 25.6017 27.967C25.6017 28.8865 25.6017 32.9178 25.6017 37.2422C27.8723 35.7125 29.7362 33.6331 31.0271 31.1895C32.3181 28.746 32.9959 26.0143 33 23.2385C32.9869 22.1869 32.8809 21.1385 32.6831 20.1064C30.6312 21.3486 28.7183 22.8156 26.9784 24.4813Z" fill="#FDC305"></path><path d="M6.29892 25.9867C6.29892 25.9867 2.54532 24.5318 1.15876 24.1377C0.779508 24.0158 0.392293 23.9212 0 23.8548C0.107354 26.7707 0.956315 29.608 2.4635 32.0879C3.97068 34.5679 6.08426 36.6053 8.59664 38L6.29892 25.9867Z" fill="#FDC305"></path><path d="M26.0375 17.2975C26.0778 11.7189 25.6136 6.1484 24.651 0.656758C24.651 0.656758 24.5123 -0.646619 23.7695 0.414269C23.1861 1.67535 22.7857 3.01637 22.581 4.39513C18.3638 4.11805 14.1305 4.23303 9.93367 4.73865C9.15126 2.02076 7.77461 0.757795 7.11104 1.01039C6.44748 1.26298 6.39796 4.35471 6.39796 4.35471L6.07113 18.6009C12.6882 17.6876 19.3603 17.252 26.0375 17.2975Z" fill="#F06351"></path><path d="M12.2908 14.1452C12.2908 14.0542 13.2812 14.8322 13.6873 15.0747C14.0933 15.3172 14.2914 15.4991 14.2914 15.6708C14.2914 15.8426 14.024 16.0144 13.6675 16.0144C13.3109 16.0144 12.7662 15.8931 12.6771 15.7416H13.608H13.8953C13.2918 15.2863 12.7521 14.7492 12.2908 14.1452Z" fill="black"></path><path d="M19.699 14.2563L18.6194 15.6001C18.6194 15.6607 18.4511 15.9537 18.7977 15.9032C19.2079 15.8408 19.6122 15.7428 20.006 15.6102C20.1149 15.6102 20.0753 15.4182 19.8971 15.4384C19.7188 15.4587 19.2137 15.489 18.9067 15.5496L19.7386 14.2765C19.7386 14.2765 19.8079 14.1452 19.699 14.2563Z" fill="black"></path><path d="M16.5891 20.4095C17.0482 20.2031 17.4277 19.848 17.6687 19.3991C17.946 18.7424 17.6687 18.4797 17.2329 18.3887C16.6366 18.2777 16.0211 18.4004 15.5096 18.7323C15.1233 19.096 15.1729 19.4597 15.4601 19.7426C15.808 20.0116 16.1872 20.2356 16.5891 20.4095Z" fill="black"></path><path d="M16.193 21.6724C16.082 21.9033 15.9271 22.1094 15.7374 22.2786C15.4553 22.5102 15.1086 22.6446 14.747 22.6626C14.2259 22.705 13.7077 22.5504 13.2911 22.2281C13.0953 22.1077 12.9183 21.9578 12.7662 21.7836C12.6667 21.6715 12.5452 21.582 12.4097 21.5209C12.4097 21.5209 13.1525 25.6634 14.955 26.3201C16.7575 26.9769 17.0744 25.5623 17.1339 25.1784C17.1934 24.0318 16.9102 22.8937 16.3217 21.9149C16.3019 21.6017 16.292 21.8038 16.193 21.6724Z" fill="#F06351"></path><path d="M14.5687 22.8242C14.1085 22.7583 13.6664 22.597 13.2695 22.3503C12.8727 22.1035 12.5295 21.7766 12.2611 21.3895C12.2479 21.3764 12.2375 21.3606 12.2303 21.3433C12.2232 21.3259 12.2195 21.3073 12.2195 21.2885C12.2195 21.2697 12.2232 21.251 12.2303 21.2337C12.2375 21.2163 12.2479 21.2006 12.2611 21.1874C12.274 21.174 12.2894 21.1633 12.3064 21.156C12.3234 21.1487 12.3417 21.145 12.3601 21.145C12.3786 21.145 12.3969 21.1487 12.4139 21.156C12.4309 21.1633 12.4463 21.174 12.4592 21.1874C12.9591 21.8889 13.71 22.3608 14.5489 22.5009C14.8774 22.4757 15.1952 22.3709 15.476 22.1952C15.7568 22.0194 15.9924 21.7779 16.1633 21.4906L16.3019 21.2986L16.401 21.5108C16.401 21.5108 16.7674 22.2786 17.3914 22.3191C18.0153 22.3595 18.4313 21.9048 18.9859 21.0258C18.9988 21.0123 19.0142 21.0017 19.0312 20.9944C19.0482 20.9871 19.0665 20.9833 19.0849 20.9833C19.1034 20.9833 19.1216 20.9871 19.1386 20.9944C19.1557 21.0017 19.1711 21.0123 19.184 21.0258C19.216 21.0466 19.2389 21.0792 19.2482 21.1168C19.2574 21.1544 19.2521 21.1941 19.2335 21.2279C18.5996 22.2382 17.9757 22.6828 17.3715 22.6424C17.1418 22.6083 16.9226 22.5215 16.7304 22.3885C16.5383 22.2555 16.3782 22.0797 16.2623 21.8745C16.0675 22.1518 15.8142 22.3811 15.5212 22.5455C15.2281 22.7098 14.9026 22.8051 14.5687 22.8242Z" fill="black"></path><path d="M25.988 19.1162C24.2097 20.7567 22.5327 22.508 20.9667 24.36C19.4104 26.2051 17.6526 27.8627 15.7275 29.3007C15.5096 28.7652 14.1231 27.7751 14.1231 27.7751C14.1231 27.7751 11.0231 25.6129 8.9928 23.9154C7.89756 22.9731 6.86216 21.9607 5.89286 20.8843L3.91207 20.7732C6.77449 25.0224 10.9639 28.1565 15.7968 29.6645C16.6486 29.523 19.0354 27.7852 20.8181 26.3706C22.9167 24.5337 24.8827 22.5448 26.7011 20.4196C27.1988 19.8245 27.5818 19.1389 27.8301 18.3988C26.7407 18.7929 25.988 19.1162 25.988 19.1162Z" fill="#F06351"></path></g><defs><clipPath id="logo-mobile_0"><rect width="33" height="38" fill="white"></rect></clipPath></defs></svg><svg viewBox="0 0 128 24" fill="none" id="logo-mobile2"><g clip-path="url(#logo-mobile2_0)"><path d="M1.6236 21.9574C0.489608 20.2815 -0.0733133 18.2722 0.0213584 16.2383V7.7617C-0.115966 5.70593 0.411707 3.66097 1.52346 1.94043C2.62499 0.612766 4.32737 0 6.83086 0C9.33436 0 10.9366 0.612766 11.938 1.73617C13.0252 3.15904 13.56 4.9407 13.4401 6.74043V8.78298H8.53324V6.43404C8.57287 5.73932 8.47057 5.04378 8.23282 4.39149C8.10574 4.12819 7.90433 3.90969 7.65449 3.76409C7.40465 3.61849 7.11781 3.55245 6.83086 3.57447C6.12989 3.57447 5.62919 3.77872 5.42891 4.28936C5.20237 5.015 5.10073 5.77516 5.12849 6.53617V17.4638C5.0756 18.2022 5.21373 18.9417 5.52905 19.6085C5.72933 20.1192 6.23003 20.3234 6.931 20.3234C7.63198 20.3234 8.03254 20.1192 8.23282 19.6085C8.4605 18.9183 8.56232 18.1914 8.53324 17.4638V15.0128H13.4401V17.0553C13.5419 18.8844 13.0103 20.6918 11.938 22.1617C10.9366 23.3872 9.23422 24 6.83086 24C4.42751 23.8979 2.62499 23.2851 1.6236 21.9574Z" fill="#111111"></path><path d="M19.3483 0.306396H25.0563L29.2622 23.5915H24.6557L23.8546 18.6894H20.55L19.7489 23.5915H15.0423L19.3483 0.306396ZM23.454 15.6255L22.2524 6.53618L21.0507 15.6255H23.454Z" fill="#111111"></path><path d="M32.767 4.18725H29.3623V0.306396H41.2789V4.08512H37.8742V23.5915H32.767V4.18725Z" fill="#111111"></path><path d="M50.3916 0.306396H59.2039V2.75746H53.496V10.417H58.1024V12.766H53.496V21.3447H59.2039V23.6936H50.2915V0.306396H50.3916Z" fill="#111111"></path><path d="M61.8076 0.306396H64.0107L70.5198 15.7277V0.306396H73.1234V23.5915H71.1206L64.5114 7.65959V23.5915H61.8076V0.306396Z" fill="#111111"></path><path d="M76.1276 0.306396H84.9399V2.75746H79.2319V10.417H83.8383V12.766H79.2319V21.3447H84.9399V23.6936H76.1276V0.306396Z" fill="#111111"></path><path d="M87.5435 0.306296H92.1499C93.962 0.178639 95.7629 0.682798 97.2571 1.73608C98.3586 2.65523 98.8593 4.28927 98.8593 6.43396C98.8593 9.39566 97.958 11.234 96.0554 11.8467L99.2599 23.4893H96.1555L93.1513 12.5616H90.6478V23.4893H87.4434V0.306296H87.5435ZM91.9497 10.3148C92.982 10.4016 94.011 10.1121 94.8537 9.49778C95.4546 8.98715 95.755 7.96587 95.755 6.43396C95.7827 5.67295 95.6811 4.91279 95.4546 4.18715C95.2292 3.66645 94.8421 3.23582 94.353 2.96162C93.6633 2.64108 92.9062 2.50069 92.1499 2.5531H90.748V10.2127H91.9497V10.3148Z" fill="#111111"></path><path d="M102.865 21.8554C101.824 20.0697 101.335 18.0053 101.463 15.932V8.17025C101.438 6.69026 101.607 5.21349 101.964 3.77876C102.299 2.70664 102.967 1.77469 103.866 1.12344C104.984 0.448453 106.274 0.128462 107.571 0.204291C109.674 0.204291 111.177 0.714929 112.078 1.83833C113.115 3.32172 113.61 5.12795 113.48 6.94472V7.76174H110.476V7.04684C110.48 6.19152 110.413 5.33736 110.275 4.49365C110.191 3.96049 109.903 3.48313 109.474 3.16599C108.911 2.78921 108.243 2.60993 107.571 2.65535C106.853 2.60843 106.143 2.82587 105.569 3.26812C105.333 3.47055 105.141 3.71989 105.003 4.00086C104.865 4.28184 104.785 4.58853 104.768 4.90216C104.636 5.81517 104.569 6.73673 104.567 7.65961V16.3405C104.493 17.663 104.698 18.9863 105.168 20.2213C105.569 21.0383 106.37 21.3447 107.571 21.3447C108.046 21.405 108.527 21.3208 108.955 21.1028C109.383 20.8847 109.737 20.5425 109.975 20.1192C110.504 18.8277 110.743 17.432 110.676 16.0341V14.4H107.772V12.0511H113.58V23.5915H111.577L111.277 20.9362C111.014 21.8261 110.467 22.601 109.724 23.1376C108.98 23.6742 108.081 23.9419 107.171 23.8979C106.343 23.9475 105.517 23.7869 104.765 23.4304C104.014 23.0739 103.361 22.5327 102.865 21.8554Z" fill="#111111"></path><path d="M119.989 15.4212L115.082 0.408447H118.086L121.591 11.6425L124.996 0.408447H128L123.093 15.4212V23.5914H120.089V15.4212H119.989Z" fill="#111111"></path></g><defs><clipPath id="logo-mobile2_0"><rect width="128" height="24" fill="white"></rect></clipPath></defs></svg></svg>